<svg width="24" height="24" viewBox="0 0 24 24" fill="none" xmlns="http://www.w3.org/2000/svg">
  <path d="M11.6 2L12.8 2.1L13.4 4.1C13.9 4.2 14.3 4.4 14.7 4.6L16.5 3.6L17.4 4.5L16.5 6.3C16.7 6.7 16.9 7.1 17 7.6L19 8.2L19.1 9.4L17.1 10C17 10.5 16.8 10.9 16.6 11.3L17.6 13.1L16.7 14L14.9 13.1C14.5 13.3 14.1 13.5 13.6 13.6L13 15.6L11.8 15.7L11.2 13.7C10.7 13.6 10.3 13.4 9.9 13.2L8.1 14.2L7.2 13.3L8.1 11.5C7.9 11.1 7.7 10.7 7.6 10.2L5.6 9.6L5.5 8.4L7.5 7.8C7.6 7.3 7.8 6.9 8 6.5L7 4.7L7.9 3.8L9.7 4.7C10.1 4.5 10.5 4.3 11 4.2L11.6 2Z" fill="#2A84E4"/>
  <circle cx="12.3" cy="8.9" r="2.4" fill="white"/>
  <path d="M12 18.1L8.9 21.2" stroke="#56C3E9" stroke-width="2" stroke-linecap="round"/>
  <path d="M16.9 18.1L13.8 21.2" stroke="#56C3E9" stroke-width="2" stroke-linecap="round"/>
</svg>